<?xml version="1.0" encoding="UTF-8" standalone="no"?>
<!-- Created with Inkscape (http://www.inkscape.org/) -->

<svg
   xmlns:dc="http://purl.org/dc/elements/1.1/"
   xmlns:cc="http://creativecommons.org/ns#"
   xmlns:rdf="http://www.w3.org/1999/02/22-rdf-syntax-ns#"
   xmlns:svg="http://www.w3.org/2000/svg"
   xmlns="http://www.w3.org/2000/svg"
   xmlns:sodipodi="http://sodipodi.sourceforge.net/DTD/sodipodi-0.dtd"
   xmlns:inkscape="http://www.inkscape.org/namespaces/inkscape"
   id="svg8"
   version="1.1"
   viewBox="0 0 210 297"
   height="297mm"
   width="210mm"
   inkscape:version="0.92.3 (2405546, 2018-03-11)"
   sodipodi:docname="GearSVG.svg">
  <sodipodi:namedview
     inkscape:window-maximized="1"
     inkscape:window-y="-8"
     inkscape:window-x="-8"
     inkscape:window-height="705"
     inkscape:window-width="1366"
     showgrid="false"
     inkscape:current-layer="svg8"
     inkscape:document-units="mm"
     inkscape:cy="687.3284"
     inkscape:cx="271.4244"
     inkscape:zoom="1"
     inkscape:pageshadow="2"
     inkscape:pageopacity="0.0"
     borderopacity="1.0"
     bordercolor="#666666"
     pagecolor="#ffffff"
     id="base"
     inkscape:snap-nodes="true"
     inkscape:object-paths="true"
     inkscape:snap-center="true" />
  <defs
     id="defs2" />
  <metadata
     id="metadata5">
    <rdf:RDF>
      <cc:Work
         rdf:about="">
        <dc:format>image/svg+xml</dc:format>
        <dc:type
           rdf:resource="http://purl.org/dc/dcmitype/StillImage" />
        <dc:title></dc:title>
      </cc:Work>
    </rdf:RDF>
  </metadata>
  <g
     inkscape:label="Layer 1"
     inkscape:groupmode="layer"
     id="layer1">
    <g
       transform="matrix(1.8410505,0,0,1.8410505,88.640383,148.83334)"
       inkscape:label="Gear24"
       id="g822" />
  </g>
  <g
     id="g955"
     inkscape:label="RackGear26.4583333328"
     transform="matrix(0.14671852,-1.1315298,0.93106702,-0.36484824,67.290271,128.49663)" />
  <g
     transform="matrix(0.14671852,-1.1315298,0.93106702,-0.36484824,64.457287,129.60675)"
     inkscape:label="RackGear26.4583333328"
     id="g972" />
  <path
     inkscape:transform-center-y="3.1648324"
     inkscape:transform-center-x="4.0211311"
     d="m 96.617115,168.68671 c -6.070543,4.49909 -0.80036,-2.17116 -7.406218,1.49708 -6.605854,3.66823 1.842176,2.72075 -5.185964,5.49536 -7.028145,2.77462 -0.211152,-2.30432 -7.54133,-0.4708 -7.330174,1.83352 1.075223,3.10483 -6.431562,3.96588 -7.50679,0.86106 0.392446,-2.28045 -7.162513,-2.40659 -7.554954,-0.12615 0.234997,3.27732 -7.238859,2.16614 -7.473859,-1.11119 0.969299,-2.10118 -6.295582,-4.17839 -7.264877,-2.07722 -0.621245,3.22647 -7.552839,0.21877 -6.931599,-3.0077 1.480095,-1.77871 -4.999619,-5.66543 -6.47971,-3.88672 -1.43515,2.95575 -7.352106,-1.74349 -5.91696,-4.69925 1.890026,-1.33503 -3.362939,-6.76639 -5.252962,-5.43136 -2.151252,2.48359 -6.65034,-3.58695 -4.49909,-6.07054 2.171155,-0.80036 -1.49708,-7.40622 -3.668233,-6.60585 -2.720749,1.84218 -5.495363,-5.18596 -2.7746152,-7.02815 2.304323,-0.21116 0.470802,-7.54133 -1.833521,-7.33018 -3.1048327,1.07522 -3.9658869,-6.43157 -0.8610548,-7.50679 2.2804549,0.39245 2.4065989,-7.16251 0.126144,-7.55495 -3.2773259,0.235 -2.1661413,-7.23886 1.1111853,-7.47386 2.1011783,0.9693 4.1783913,-6.29558 2.077212,-7.26488 -3.226476,-0.62124 -0.218778,-7.55284 3.0077,-6.931597 1.778709,1.4801 5.665433,-4.999617 3.886721,-6.47971 -2.955746,-1.43515 1.743495,-7.352106 4.699245,-5.91696 1.335025,1.890026 6.766384,-3.362939 5.431357,-5.252962 -2.483587,-2.151252 3.586953,-6.65034 6.070544,-4.49909 0.80036,2.171155 7.406218,-1.49708 6.605854,-3.668233 -1.842176,-2.72075 5.185964,-5.495363 7.028145,-2.774615 0.211152,2.304323 7.54133,0.470801 7.330174,-1.83352 -1.075223,-3.104832 6.431562,-3.965886 7.50679,-0.861055 -0.392445,2.280455 7.162513,2.406599 7.554954,0.126144 -0.234996,-3.277326 7.238859,-2.166142 7.47386,1.111186 -0.969299,2.101179 6.295582,4.178392 7.264877,2.077211 0.621245,-3.226476 7.55284,-0.218778 6.931598,3.0077 -1.480096,1.778709 4.999618,5.665432 6.47971,3.886721 1.43515,-2.955746 7.352106,1.743496 5.916956,4.699245 -1.890026,1.335024 3.362936,6.766384 5.25297,5.431357 2.15126,-2.483587 6.65034,3.586953 4.49909,6.070543 -2.17115,0.800359 1.49708,7.406218 3.66824,6.605856 2.72075,-1.842177 5.49537,5.185966 2.77461,7.02814 -2.30433,0.21115 -0.47081,7.54133 1.83352,7.33017 3.10484,-1.07523 3.96589,6.43156 0.86106,7.50679 -2.28045,-0.39245 -2.4066,7.16251 -0.12614,7.55496 3.27733,-0.23499 2.16614,7.23886 -1.11118,7.47386 -2.10117,-0.9693 -4.17839,6.29558 -2.07721,7.26488 3.22648,0.62125 0.21878,7.55284 -3.0077,6.9316 -1.77871,-1.48009 -5.66543,4.99962 -3.88672,6.47971 2.95574,1.43515 -1.7435,7.35211 -4.69924,5.91696 -1.33502,-1.89003 -6.76638,3.36294 -5.431359,5.25296 2.48359,2.15125 -3.586955,6.65034 z"
     inkscape:randomized="0"
     inkscape:rounded="1"
     inkscape:flatsided="false"
     sodipodi:arg2="1.0638929"
     sodipodi:arg1="0.93299316"
     sodipodi:r2="52.415573"
     sodipodi:r1="55.174286"
     sodipodi:cy="124.35937"
     sodipodi:cx="63.764584"
     sodipodi:sides="24"
     id="path1129"
     style="opacity:1;fill:#c8b7b7;fill-opacity:1;fill-rule:nonzero;stroke:#000000;stroke-width:0.31487337;stroke-miterlimit:4;stroke-dasharray:none;stroke-opacity:1"
     sodipodi:type="star"
     transform="rotate(-126.39374,63.740087,125.10402)" />
  <path
     sodipodi:type="star"
     style="opacity:1;fill:#ff6600;fill-opacity:1;fill-rule:nonzero;stroke:#000000;stroke-width:0.26499999;stroke-miterlimit:4;stroke-dasharray:none;stroke-opacity:1"
     id="path1127"
     sodipodi:sides="24"
     sodipodi:cx="63.764584"
     sodipodi:cy="124.35937"
     sodipodi:r1="46.435127"
     sodipodi:r2="44.113373"
     sodipodi:arg1="0.93299316"
     sodipodi:arg2="1.0638929"
     inkscape:flatsided="false"
     inkscape:rounded="1"
     inkscape:randomized="0"
     d="m 91.413541,161.66562 c -5.109019,3.78647 -0.673589,-1.82726 -6.233133,1.25995 -5.55954,3.08722 1.55039,2.28981 -4.36455,4.62494 -5.914944,2.33514 -0.177707,-1.93933 -6.346844,-0.39623 -6.169134,1.54311 0.904916,2.61305 -5.412855,3.33773 -6.317776,0.72467 0.330285,-1.91925 -6.028029,-2.02542 -6.358311,-0.10616 0.197775,2.75823 -6.092283,1.82304 -6.29006,-0.93518 0.81577,-1.76836 -5.298413,-3.51656 -6.114179,-1.7482 -0.522845,2.71542 -6.356531,0.18412 -5.833689,-2.5313 1.24566,-1.49697 -4.20772,-4.76807 -5.453376,-3.2711 -1.207833,2.48758 -6.187592,-1.46734 -4.979761,-3.95493 1.590661,-1.12357 -2.830277,-5.69465 -4.420935,-4.57107 -1.810511,2.09021 -5.596979,-3.01881 -3.786471,-5.10901 1.827261,-0.67358 -1.259956,-6.23313 -3.087214,-5.55954 -2.289804,1.55039 -4.624941,-4.36455 -2.335139,-5.91494 1.939336,-0.17771 0.39623,-6.34684 -1.543106,-6.16914 -2.613052,0.90491 -3.337722,-5.41286 -0.724671,-6.31777 1.919249,0.33029 2.025413,-6.02803 0.106163,-6.35831 -2.758224,0.19778 -1.823042,-6.09228 0.935182,-6.29006 1.768368,0.81577 3.516567,-5.29841 1.748198,-6.11418 -2.715427,-0.52285 -0.184124,-6.35653 2.531304,-5.83369 1.496975,1.24566 4.768073,-4.20772 3.271096,-5.453379 -2.487579,-1.20784 1.467341,-6.187595 3.954922,-4.979761 1.123567,1.590661 5.694643,-2.830277 4.571074,-4.420935 -2.090206,-1.810511 3.018809,-5.596979 5.109019,-3.786471 0.673589,1.827261 6.233133,-1.259956 5.55954,-3.087215 -1.55039,-2.289804 4.36455,-4.624942 5.914944,-2.335138 0.177707,1.939337 6.346845,0.39623 6.169133,-1.543105 -0.904917,-2.613051 5.412854,-3.337721 6.317776,-0.724671 -0.330285,1.919249 6.02803,2.025412 6.35831,0.106164 -0.197775,-2.758223 6.092282,-1.823041 6.290061,0.935182 -0.81577,1.768368 5.298413,3.516567 6.114179,1.748198 0.522845,-2.715427 6.356531,-0.184125 5.833689,2.531305 -1.24566,1.496976 4.20772,4.768074 5.453376,3.271096 1.207834,-2.487579 6.187592,1.467341 4.979761,3.954922 -1.590661,1.123567 2.830277,5.694643 4.420935,4.571074 1.810511,-2.090207 5.596977,3.018809 3.78647,5.10902 -1.827259,0.673589 1.25996,6.23313 3.08721,5.55954 2.2898,-1.55039 4.62494,4.36455 2.33514,5.91495 -1.93934,0.17771 -0.39623,6.34685 1.54311,6.16913 2.61305,-0.90492 3.33772,5.41285 0.72467,6.31778 -1.91925,-0.33028 -2.02541,6.02803 -0.10617,6.35831 2.75822,-0.19777 1.82304,6.09228 -0.93518,6.29006 -1.76837,-0.81577 -3.51657,5.29842 -1.7482,6.11418 2.71543,0.52284 0.18413,6.35653 -2.53131,5.83369 -1.49698,-1.24566 -4.76808,4.20772 -3.271092,5.45337 2.48758,1.20783 -1.46734,6.18759 -3.954919,4.97976 -1.123564,-1.59066 -5.69464,2.83028 -4.571074,4.42093 2.090207,1.81051 -3.018809,5.59698 z"
     inkscape:transform-center-x="3.3842146"
     inkscape:transform-center-y="2.6635469"
     transform="rotate(-126.39374,63.740087,125.10402)" />
  <path
     style="fill:none;stroke:#000000;stroke-width:0.26458332px;stroke-linecap:butt;stroke-linejoin:miter;stroke-opacity:1"
     d="m 23.825887,149.60725 -7.466484,4.51053 c -1.906592,-1.94396 -2.618472,-3.96155 -3.115093,-5.99243 l 7.879531,-3.50883 c 0.537373,1.81328 1.166328,3.5888 2.702035,4.99073 z"
     id="path1135"
     inkscape:connector-curvature="0"
     sodipodi:nodetypes="ccccc" />
  <path
     sodipodi:nodetypes="ccccc"
     inkscape:connector-curvature="0"
     id="path1137"
     d="m 23.825887,149.60725 -7.466484,4.51053 c -1.906592,-1.94396 -2.618472,-3.96155 -3.115093,-5.99243 l 7.879531,-3.50883 c 0.537373,1.81328 1.166328,3.5888 2.702035,4.99073 z"
     style="fill:none;stroke:#000000;stroke-width:0.26458332px;stroke-linecap:butt;stroke-linejoin:miter;stroke-opacity:1" />
  <path
     sodipodi:nodetypes="ccccc"
     inkscape:connector-curvature="0"
     id="path1137-9"
     d="m 18.991294,138.48227 -8.348793,2.52801 c -1.3677692,-2.35441 -1.5596148,-4.4853 -1.539592,-6.57592 l 8.501819,-1.45534 c 0.07315,1.88979 0.244407,3.76564 1.38656,5.50325 z"
     style="fill:none;stroke:#000000;stroke-width:0.26458332px;stroke-linecap:butt;stroke-linejoin:miter;stroke-opacity:1" />
  <path
     sodipodi:nodetypes="ccccc"
     inkscape:connector-curvature="0"
     id="path1137-93"
     d="m 17.138112,126.5525 -8.7118304,0.44416 c -0.7608524,-2.61441 -0.4341649,-4.72883 0.08848,-6.75316 l 8.60216,0.6338 c -0.383858,1.85185 -0.669155,3.71376 0.02119,5.6752 z"
     style="fill:none;stroke:#000000;stroke-width:0.26458332px;stroke-linecap:butt;stroke-linejoin:miter;stroke-opacity:1" />
  <path
     sodipodi:nodetypes="ccccc"
     inkscape:connector-curvature="0"
     id="path1137-3"
     d="m 18.416659,114.71774 -8.5072502,-1.92871 c -0.025369,-2.72275 0.8610372,-4.67 1.9117282,-6.47752 l 8.110112,2.93683 c -0.870427,1.679 -1.648686,3.39435 -1.514592,5.4694 z"
     style="fill:none;stroke:#000000;stroke-width:0.26458332px;stroke-linecap:butt;stroke-linejoin:miter;stroke-opacity:1" />
  <path
     sodipodi:nodetypes="ccccc"
     inkscape:connector-curvature="0"
     id="path1137-91"
     d="m 22.736604,103.51097 -7.718507,-4.064223 c 0.679988,-2.636599 2.040047,-4.288185 3.522641,-5.762293 l 7.074048,4.935253 c -1.27522,1.396613 -2.470807,2.852173 -2.878185,4.891253 z"
     style="fill:none;stroke:#000000;stroke-width:0.26458332px;stroke-linecap:butt;stroke-linejoin:miter;stroke-opacity:1" />
  <path
     sodipodi:nodetypes="ccccc"
     inkscape:connector-curvature="0"
     id="path1137-31"
     d="m 29.607855,93.793845 -6.351153,-5.97964 c 1.360062,-2.35887 3.11213,-3.586776 4.93483,-4.610907 l 5.497301,6.646696 c -1.602158,1.00489 -3.143336,2.087875 -4.080981,3.943848 z"
     style="fill:none;stroke:#000000;stroke-width:0.26458332px;stroke-linecap:butt;stroke-linejoin:miter;stroke-opacity:1" />
  <path
     sodipodi:nodetypes="ccccc"
     inkscape:connector-curvature="0"
     id="path1137-0"
     d="m 39.162781,86.16903 -4.635477,-7.389561 c 1.911612,-1.939014 3.916957,-2.68473 5.939189,-3.215438 l 3.64086,7.819401 c -1.803978,0.567782 -3.568675,1.226519 -4.944574,2.785594 z"
     style="fill:none;stroke:#000000;stroke-width:0.26458332px;stroke-linecap:butt;stroke-linejoin:miter;stroke-opacity:1" />
  <path
     sodipodi:nodetypes="ccccc"
     inkscape:connector-curvature="0"
     id="path1137-4"
     d="m 50.123147,81.364966 -2.554004,-8.340881 c 2.350139,-1.375093 4.480421,-1.573579 6.57109,-1.560062 l 1.481819,8.49724 c -1.889566,0.07905 -3.764861,0.256136 -5.498906,1.403699 z"
     style="fill:none;stroke:#000000;stroke-width:0.26458332px;stroke-linecap:butt;stroke-linejoin:miter;stroke-opacity:1" />
  <path
     sodipodi:nodetypes="ccccc"
     inkscape:connector-curvature="0"
     id="path1137-1"
     d="m 61.936837,79.447511 -0.383124,-8.714727 c 2.619674,-0.742523 4.731754,-0.40103 6.752375,0.135782 l -0.694042,8.597511 c -1.849119,-0.396824 -3.708982,-0.695153 -5.675209,-0.01857 z"
     style="fill:none;stroke:#000000;stroke-width:0.26458332px;stroke-linecap:butt;stroke-linejoin:miter;stroke-opacity:1" />
</svg>
