<?xml version="1.0" encoding="UTF-8" standalone="no"?>
<!-- Created with Inkscape (http://www.inkscape.org/) -->

<svg
   xmlns:osb="http://www.openswatchbook.org/uri/2009/osb"
   xmlns:dc="http://purl.org/dc/elements/1.1/"
   xmlns:cc="http://creativecommons.org/ns#"
   xmlns:rdf="http://www.w3.org/1999/02/22-rdf-syntax-ns#"
   xmlns:svg="http://www.w3.org/2000/svg"
   xmlns="http://www.w3.org/2000/svg"
   xmlns:sodipodi="http://sodipodi.sourceforge.net/DTD/sodipodi-0.dtd"
   xmlns:inkscape="http://www.inkscape.org/namespaces/inkscape"
   width="210mm"
   height="297mm"
   viewBox="0 0 210 297"
   version="1.1"
   id="svg8"
   inkscape:version="0.92.3 (2405546, 2018-03-11)"
   sodipodi:docname="batterySVG.svg"
   inkscape:export-filename="C:\Users\Mayank\GodotGameEngine\image.png"
   inkscape:export-xdpi="100000"
   inkscape:export-ydpi="100000"
   enable-background="new">
  <defs
     id="defs2">
    <linearGradient
       id="linearGradient6135"
       osb:paint="solid">
      <stop
         style="stop-color:#000000;stop-opacity:1;"
         offset="0"
         id="stop6133" />
    </linearGradient>
    <filter
       inkscape:collect="always"
       style="color-interpolation-filters:sRGB"
       id="filter4617">
      <feBlend
         inkscape:collect="always"
         mode="multiply"
         in2="BackgroundImage"
         id="feBlend4619" />
    </filter>
  </defs>
  <sodipodi:namedview
     id="base"
     pagecolor="#ffffff"
     bordercolor="#666666"
     borderopacity="1.0"
     inkscape:pageopacity="0.0"
     inkscape:pageshadow="2"
     inkscape:zoom="1"
     inkscape:cx="450.61703"
     inkscape:cy="472.22456"
     inkscape:document-units="mm"
     inkscape:current-layer="layer1"
     showgrid="false"
     inkscape:snap-smooth-nodes="true"
     inkscape:object-paths="false"
     inkscape:window-width="1366"
     inkscape:window-height="705"
     inkscape:window-x="-8"
     inkscape:window-y="-8"
     inkscape:window-maximized="1" />
  <metadata
     id="metadata5">
    <rdf:RDF>
      <cc:Work
         rdf:about="">
        <dc:format>image/svg+xml</dc:format>
        <dc:type
           rdf:resource="http://purl.org/dc/dcmitype/StillImage" />
        <dc:title></dc:title>
      </cc:Work>
    </rdf:RDF>
  </metadata>
  <g
     inkscape:groupmode="layer"
     id="layer2"
     inkscape:label="Layer 2"
     style="opacity:0.95;filter:url(#filter4617)">
    <rect
       style="opacity:0.42000002;fill:#259898;fill-opacity:1;fill-rule:nonzero;stroke:none;stroke-width:10;stroke-miterlimit:4;stroke-dasharray:none;stroke-opacity:1"
       id="rect4577"
       width="158.22083"
       height="127.79375"
       x="23.213751"
       y="115.63068"
       inkscape:export-filename="C:\Users\Mayank\GodotGameEngine\path4540.png"
       inkscape:export-xdpi="1080"
       inkscape:export-ydpi="1080" />
  </g>
  <g
     inkscape:label="Layer 1"
     inkscape:groupmode="layer"
     id="layer1">
    <path
       style="color:#000000;font-style:normal;font-variant:normal;font-weight:normal;font-stretch:normal;font-size:medium;line-height:normal;font-family:sans-serif;font-variant-ligatures:normal;font-variant-position:normal;font-variant-caps:normal;font-variant-numeric:normal;font-variant-alternates:normal;font-feature-settings:normal;text-indent:0;text-align:start;text-decoration:none;text-decoration-line:none;text-decoration-style:solid;text-decoration-color:#000000;letter-spacing:normal;word-spacing:normal;text-transform:none;writing-mode:lr-tb;direction:ltr;text-orientation:mixed;dominant-baseline:auto;baseline-shift:baseline;text-anchor:start;white-space:normal;shape-padding:0;clip-rule:nonzero;display:inline;overflow:visible;visibility:visible;opacity:1;isolation:auto;mix-blend-mode:normal;color-interpolation:sRGB;color-interpolation-filters:linearRGB;solid-color:#000000;solid-opacity:1;vector-effect:none;fill:#ffffff;fill-opacity:1;fill-rule:nonzero;stroke:none;stroke-width:8.2155962;stroke-linecap:butt;stroke-linejoin:miter;stroke-miterlimit:4;stroke-dasharray:none;stroke-dashoffset:0;stroke-opacity:1;color-rendering:auto;image-rendering:auto;shape-rendering:auto;text-rendering:auto;enable-background:accumulate"
       d="m 104.64323,140.08374 c -3.52003,0 -6.702052,0.36449 -9.151932,1.01226 -1.22495,0.32388 -2.26308,0.70086 -3.16021,1.26168 -0.89713,0.56083 -1.97451,1.50015 -1.97451,3.15687 v 2.98602 c -1.2626,0.23293 -2.46011,0.49675 -3.57667,0.79198 -2.39093,0.63218 -4.41743,1.36822 -6.16852,2.46289 -1.7511,1.09465 -3.85431,2.92771 -3.85431,6.16142 v 59.44491 c 0,3.23372 2.10321,5.06675 3.85431,6.16142 1.75109,1.09467 3.77759,1.83071 6.16852,2.46289 4.78186,1.26437 10.99266,1.97596 17.863322,1.97597 6.87065,-1e-5 13.08146,-0.7116 17.86332,-1.97597 2.39093,-0.63218 4.41743,-1.36822 6.16853,-2.46289 1.75109,-1.09467 3.8543,-2.9277 3.8543,-6.16142 v -59.44491 c 0,-3.23371 -2.10321,-5.06677 -3.8543,-6.16142 -1.7511,-1.09467 -3.7776,-1.83071 -6.16853,-2.46289 -1.11656,-0.29523 -2.31407,-0.55905 -3.57667,-0.79198 v -2.98602 c 0,-1.65672 -1.07738,-2.59604 -1.97451,-3.15687 -0.89714,-0.56082 -1.93527,-0.9378 -3.16021,-1.26168 -2.44988,-0.64777 -5.63191,-1.01226 -9.15193,-1.01226 z M 90.356578,152.8476 v 2.32781 c 0,1.65671 1.07738,2.59604 1.97451,3.15687 0.89713,0.56081 1.93526,0.9378 3.16021,1.26168 2.44988,0.64777 5.631902,1.01225 9.151932,1.01226 3.52002,-1e-5 6.70205,-0.36449 9.15193,-1.01226 1.22494,-0.32388 2.26307,-0.70087 3.16021,-1.26168 0.89713,-0.56083 1.97451,-1.50016 1.97451,-3.15687 v -2.32693 a 23.935512,6.3287356 0 0 1 9.64884,5.06838 23.935512,6.3287356 0 0 1 -23.93549,6.32874 23.935512,6.3287356 0 0 1 -23.935492,-6.32874 23.935512,6.3287356 0 0 1 9.64884,-5.06926 z m -9.64884,23.37739 c 0,3.49526 10.71628,6.32873 23.935492,6.32874 13.21921,-1e-5 23.93549,-2.83348 23.93549,-6.32874 v 41.13678 c 0,3.49526 -10.71628,6.32873 -23.93549,6.32873 -13.219212,0 -23.935492,-2.83347 -23.935492,-6.32873 v -5.65066 c 0,1.64567 2.37672,3.14419 6.2706,4.26978 v -6.10271 c -3.89388,-1.12559 -6.2706,-2.62412 -6.2706,-4.26978 v -5.87668 c 0,1.64566 2.37672,3.14418 6.2706,4.26978 v -6.10271 c -3.89388,-1.1256 -6.2706,-2.62412 -6.2706,-4.26978 v -5.87668 c 0,1.64566 2.37672,3.14418 6.2706,4.26978 v -6.10271 c -3.89388,-1.12559 -6.2706,-2.62411 -6.2706,-4.26978 z"
       id="path4537"
       inkscape:connector-curvature="0"
       inkscape:export-filename="C:\Users\Mayank\GodotGameEngine\path4540.png"
       inkscape:export-xdpi="1080"
       inkscape:export-ydpi="1080" />
  </g>
</svg>
